<?xml version="1.0" encoding="UTF-8"?>
<!-- Cable designations read letter by letter, from the cable descriptions in the Guías (BT-14, 15, 16, 26, 28, 29, 33),
     and the conductor classes of Guía BT-26 (-U, -R, -K) and BT-33 (-F). Our own drawing; the conductor cross-sections
     are schematic. Styled by .cheat-visual classes. -->
<svg xmlns="http://www.w3.org/2000/svg" viewBox="0 0 360 258" role="img" aria-label="Cómo se lee la designación de un cable: H07V-K y RZ1-K (AS), y clases de conductor">
  <text class="v-title" x="10" y="14">Unipolar de interior</text>
  <rect class="v-card" x="10" y="24" width="30" height="24" rx="3"/>
  <text class="v-key" x="25" y="41" text-anchor="middle" font-size="13">H</text>
  <text x="25" y="60" text-anchor="middle" font-size="8.5">UNE-EN</text>
  <text x="25" y="70" text-anchor="middle" font-size="8.5">50525</text>
  <rect class="v-acc-soft" x="46" y="24" width="40" height="24" rx="3"/>
  <text class="v-key" x="66" y="41" text-anchor="middle" font-size="13">07</text>
  <text x="66" y="60" text-anchor="middle" font-size="8.5">450/750 V</text>
  <rect class="v-ok" x="92" y="24" width="30" height="24" rx="3"/>
  <text class="v-key" x="107" y="41" text-anchor="middle" font-size="13">V</text>
  <text x="107" y="60" text-anchor="middle" font-size="8.5">aislam.</text>
  <text x="107" y="70" text-anchor="middle" font-size="8.5">PVC</text>
  <rect class="v-acc-soft" x="128" y="24" width="40" height="24" rx="3"/>
  <text class="v-key" x="148" y="41" text-anchor="middle" font-size="13">-K</text>
  <text x="148" y="60" text-anchor="middle" font-size="8.5">clase 5,</text>
  <text x="148" y="70" text-anchor="middle" font-size="8.5">flexible</text>
  <text class="v-soft" x="350" y="40" text-anchor="end" font-size="9">conductor aislado,</text>
  <text class="v-soft" x="350" y="51" text-anchor="end" font-size="9">sin cubierta</text>
  <text class="v-title" x="10" y="90">Cable de 0,6/1 kV</text>
  <rect class="v-ok" x="10" y="98" width="30" height="24" rx="3"/>
  <text class="v-key" x="25" y="115" text-anchor="middle" font-size="13">R</text>
  <text x="25" y="134" text-anchor="middle" font-size="8.5">aislam.</text>
  <text x="25" y="144" text-anchor="middle" font-size="8.5">XLPE</text>
  <rect class="v-ok" x="46" y="98" width="40" height="24" rx="3"/>
  <text class="v-key" x="66" y="115" text-anchor="middle" font-size="13">Z1</text>
  <text x="66" y="134" text-anchor="middle" font-size="8.5">cubierta</text>
  <text x="66" y="144" text-anchor="middle" font-size="8.5">poliolefina</text>
  <rect class="v-acc-soft" x="92" y="98" width="40" height="24" rx="3"/>
  <text class="v-key" x="112" y="115" text-anchor="middle" font-size="13">-K</text>
  <text x="112" y="134" text-anchor="middle" font-size="8.5">clase 5,</text>
  <text x="112" y="144" text-anchor="middle" font-size="8.5">flexible</text>
  <rect class="v-card" x="138" y="98" width="52" height="24" rx="3"/>
  <text class="v-key" x="164" y="115" text-anchor="middle" font-size="13">(AS)</text>
  <text x="164" y="134" text-anchor="middle" font-size="8.5">no propaga</text>
  <text x="164" y="144" text-anchor="middle" font-size="8.5">el incendio,</text>
  <text x="164" y="154" text-anchor="middle" font-size="8.5">pocos humos</text>
  <text class="v-soft" x="350" y="114" text-anchor="end" font-size="9">sin cifra de tensión:</text>
  <text class="v-soft" x="350" y="125" text-anchor="end" font-size="9">es de 0,6/1 kV</text>
  <path class="v-rule" d="M0 164H360"/>
  <text class="v-title" x="10" y="184">Clase del conductor (tras el guion)</text>
  <circle class="v-body" cx="52" cy="210" r="16"/>
  <circle class="v-acc-soft" cx="52.0" cy="210" r="10"/>
  <circle class="v-body" cx="136" cy="210" r="16"/>
  <circle class="v-acc-soft" cx="136.0" cy="210" r="4.6"/>
  <circle class="v-acc-soft" cx="145.2" cy="210" r="4.6"/>
  <circle class="v-acc-soft" cx="140.6" cy="218" r="4.6"/>
  <circle class="v-acc-soft" cx="131.4" cy="218" r="4.6"/>
  <circle class="v-acc-soft" cx="126.8" cy="210" r="4.6"/>
  <circle class="v-acc-soft" cx="131.4" cy="202" r="4.6"/>
  <circle class="v-acc-soft" cx="140.6" cy="202" r="4.6"/>
  <circle class="v-body" cx="220" cy="210" r="16"/>
  <circle class="v-acc-soft" cx="220.0" cy="210" r="2.7"/>
  <circle class="v-acc-soft" cx="225.4" cy="210" r="2.7"/>
  <circle class="v-acc-soft" cx="222.7" cy="214.7" r="2.7"/>
  <circle class="v-acc-soft" cx="217.3" cy="214.7" r="2.7"/>
  <circle class="v-acc-soft" cx="214.6" cy="210" r="2.7"/>
  <circle class="v-acc-soft" cx="217.3" cy="205.3" r="2.7"/>
  <circle class="v-acc-soft" cx="222.7" cy="205.3" r="2.7"/>
  <circle class="v-acc-soft" cx="230.8" cy="210" r="2.7"/>
  <circle class="v-acc-soft" cx="229.4" cy="215.4" r="2.7"/>
  <circle class="v-acc-soft" cx="225.4" cy="219.4" r="2.7"/>
  <circle class="v-acc-soft" cx="220.0" cy="220.8" r="2.7"/>
  <circle class="v-acc-soft" cx="214.6" cy="219.4" r="2.7"/>
  <circle class="v-acc-soft" cx="210.6" cy="215.4" r="2.7"/>
  <circle class="v-acc-soft" cx="209.2" cy="210" r="2.7"/>
  <circle class="v-acc-soft" cx="210.6" cy="204.6" r="2.7"/>
  <circle class="v-acc-soft" cx="214.6" cy="200.6" r="2.7"/>
  <circle class="v-acc-soft" cx="220.0" cy="199.2" r="2.7"/>
  <circle class="v-acc-soft" cx="225.4" cy="200.6" r="2.7"/>
  <circle class="v-acc-soft" cx="229.4" cy="204.6" r="2.7"/>
  <circle class="v-body" cx="304" cy="210" r="16"/>
  <circle class="v-acc-soft" cx="304.0" cy="210" r="2.7"/>
  <circle class="v-acc-soft" cx="309.4" cy="210" r="2.7"/>
  <circle class="v-acc-soft" cx="306.7" cy="214.7" r="2.7"/>
  <circle class="v-acc-soft" cx="301.3" cy="214.7" r="2.7"/>
  <circle class="v-acc-soft" cx="298.6" cy="210" r="2.7"/>
  <circle class="v-acc-soft" cx="301.3" cy="205.3" r="2.7"/>
  <circle class="v-acc-soft" cx="306.7" cy="205.3" r="2.7"/>
  <circle class="v-acc-soft" cx="314.8" cy="210" r="2.7"/>
  <circle class="v-acc-soft" cx="313.4" cy="215.4" r="2.7"/>
  <circle class="v-acc-soft" cx="309.4" cy="219.4" r="2.7"/>
  <circle class="v-acc-soft" cx="304.0" cy="220.8" r="2.7"/>
  <circle class="v-acc-soft" cx="298.6" cy="219.4" r="2.7"/>
  <circle class="v-acc-soft" cx="294.6" cy="215.4" r="2.7"/>
  <circle class="v-acc-soft" cx="293.2" cy="210" r="2.7"/>
  <circle class="v-acc-soft" cx="294.6" cy="204.6" r="2.7"/>
  <circle class="v-acc-soft" cx="298.6" cy="200.6" r="2.7"/>
  <circle class="v-acc-soft" cx="304.0" cy="199.2" r="2.7"/>
  <circle class="v-acc-soft" cx="309.4" cy="200.6" r="2.7"/>
  <circle class="v-acc-soft" cx="313.4" cy="204.6" r="2.7"/>
  <g text-anchor="middle" font-size="8.5">
    <text class="v-key" x="52" y="240">-U · clase 1</text><text x="52" y="251">un alambre</text>
    <text class="v-key" x="136" y="240">-R · clase 2</text><text x="136" y="251">varios, rígido</text>
    <text class="v-key" x="220" y="240">-K · clase 5</text><text x="220" y="251">flexible, fijo</text>
    <text class="v-key" x="304" y="240">-F · clase 5</text><text x="304" y="251">usos móviles</text>
  </g>
</svg>
